<?xml version="1.0" encoding="UTF-8" standalone="no"?>
<svg
   xmlns:dc="http://purl.org/dc/elements/1.1/"
   xmlns:cc="http://creativecommons.org/ns#"
   xmlns:rdf="http://www.w3.org/1999/02/22-rdf-syntax-ns#"
   xmlns:svg="http://www.w3.org/2000/svg"
   xmlns="http://www.w3.org/2000/svg"
   xmlns:sodipodi="http://sodipodi.sourceforge.net/DTD/sodipodi-0.dtd"
   xmlns:inkscape="http://www.inkscape.org/namespaces/inkscape"
   width="210mm"
   height="145mm"
   viewBox="0 0 210 145"
   version="1.1"
   id="svg1175"
   inkscape:version="1.0.1 (3bc2e813f5, 2020-09-07)"
   sodipodi:docname="crown-1s.svg">
  <defs
     id="defs1169" />
  <sodipodi:namedview
     id="base"
     pagecolor="#ffffff"
     bordercolor="#666666"
     borderopacity="1.0"
     inkscape:pageopacity="0.0"
     inkscape:pageshadow="2"
     inkscape:zoom="0.98994949"
     inkscape:cx="360.58275"
     inkscape:cy="331.83504"
     inkscape:document-units="mm"
     inkscape:current-layer="layer1"
     inkscape:document-rotation="0"
     showgrid="false"
     inkscape:pagecheckerboard="true"
     inkscape:window-width="1566"
     inkscape:window-height="1030"
     inkscape:window-x="224"
     inkscape:window-y="0"
     inkscape:window-maximized="0" />
  <metadata
     id="metadata1172">
    <rdf:RDF>
      <cc:Work
         rdf:about="">
        <dc:format>image/svg+xml</dc:format>
        <dc:type
           rdf:resource="http://purl.org/dc/dcmitype/StillImage" />
        <dc:title></dc:title>
      </cc:Work>
    </rdf:RDF>
  </metadata>
  <g
     inkscape:label="Layer 1"
     inkscape:groupmode="layer"
     id="layer1">
    <g
       id="g1193"
       style="opacity:1;stroke:#4d4d4d;stroke-opacity:1">
      <path
         style="color:#000000;font-style:normal;font-variant:normal;font-weight:normal;font-stretch:normal;font-size:medium;line-height:normal;font-family:sans-serif;font-variant-ligatures:normal;font-variant-position:normal;font-variant-caps:normal;font-variant-numeric:normal;font-variant-alternates:normal;font-variant-east-asian:normal;font-feature-settings:normal;font-variation-settings:normal;text-indent:0;text-align:start;text-decoration:none;text-decoration-line:none;text-decoration-style:solid;text-decoration-color:#000000;letter-spacing:normal;word-spacing:normal;text-transform:none;writing-mode:lr-tb;direction:ltr;text-orientation:mixed;dominant-baseline:auto;baseline-shift:baseline;text-anchor:start;white-space:normal;shape-padding:0;shape-margin:0;inline-size:0;clip-rule:nonzero;display:inline;overflow:visible;visibility:visible;isolation:auto;mix-blend-mode:normal;color-interpolation:sRGB;color-interpolation-filters:linearRGB;solid-color:#000000;solid-opacity:1;vector-effect:none;fill:#ffffff;fill-opacity:1;fill-rule:nonzero;stroke-width:0.26458333;stroke-linecap:butt;stroke-linejoin:miter;stroke-miterlimit:4;stroke-dasharray:none;stroke-dashoffset:0;stroke-opacity:1;color-rendering:auto;image-rendering:auto;shape-rendering:auto;text-rendering:auto;enable-background:accumulate;stop-color:#000000;stop-opacity:1;stroke:#4d4d4d"
         d="m 129.9952,102.61764 c -0.7675,-0.28102 -1.75695,-0.85057 -2.1988,-1.26566 -1.51104,-1.419547 -1.39824,-1.901024 1.05461,-4.501162 2.36259,-2.504455 6.79569,-8.880981 8.70071,-12.515041 l 1.09333,-2.08564 -0.9517,-0.99336 c -1.27178,-1.32745 -1.541,-4.15107 -0.56451,-5.9206 1.29484,-2.34641 4.71825,-3.2167 7.05322,-1.79305 2.42371,1.47775 3.26607,4.65121 1.85077,6.97249 -0.74555,1.22279 -2.61282,2.55091 -3.58953,2.5531 -1.27493,0.003 -2.43622,5.6424 -2.7244,13.230444 l -0.21437,5.644429 -1.23472,0.61681 c -1.54029,0.76946 -6.24068,0.80198 -8.27461,0.0572 z"
         id="path1195" />
      <path
         style="color:#000000;font-style:normal;font-variant:normal;font-weight:normal;font-stretch:normal;font-size:medium;line-height:normal;font-family:sans-serif;font-variant-ligatures:normal;font-variant-position:normal;font-variant-caps:normal;font-variant-numeric:normal;font-variant-alternates:normal;font-variant-east-asian:normal;font-feature-settings:normal;font-variation-settings:normal;text-indent:0;text-align:start;text-decoration:none;text-decoration-line:none;text-decoration-style:solid;text-decoration-color:#000000;letter-spacing:normal;word-spacing:normal;text-transform:none;writing-mode:lr-tb;direction:ltr;text-orientation:mixed;dominant-baseline:auto;baseline-shift:baseline;text-anchor:start;white-space:normal;shape-padding:0;shape-margin:0;inline-size:0;clip-rule:nonzero;display:inline;overflow:visible;visibility:visible;isolation:auto;mix-blend-mode:normal;color-interpolation:sRGB;color-interpolation-filters:linearRGB;solid-color:#000000;solid-opacity:1;vector-effect:none;fill-opacity:1;fill-rule:nonzero;stroke-width:0.26458333;stroke-linecap:butt;stroke-linejoin:miter;stroke-miterlimit:4;stroke-dasharray:none;stroke-dashoffset:0;stroke-opacity:1;color-rendering:auto;image-rendering:auto;shape-rendering:auto;text-rendering:auto;enable-background:accumulate;stop-color:#000000;stop-opacity:1;stroke:#4d4d4d"
         d="M 142.29883 72.714844 C 140.22074 72.456236 137.98671 73.415947 136.97461 75.25 C 136.46388 76.175517 136.28546 77.355102 136.39258 78.478516 C 136.49969 79.601929 136.8916 80.674558 137.56641 81.378906 L 138.42969 82.28125 L 137.39453 84.253906 C 135.50236 87.863451 131.05827 94.254607 128.72266 96.730469 C 127.49343 98.033509 126.83076 98.800758 126.66602 99.503906 C 126.58364 99.85548 126.64616 100.18987 126.82617 100.50391 C 127.00618 100.81794 127.2936 101.12143 127.67578 101.48047 C 128.15472 101.9304 129.1398 102.49256 129.93359 102.7832 L 130.17188 102.86914 L 130.17188 102.8125 C 131.23619 103.15727 132.77159 103.34468 134.31836 103.33398 C 135.95399 103.32267 137.51618 103.13509 138.34961 102.71875 L 139.67773 102.05469 L 139.89453 96.306641 C 140.03834 92.519942 140.40213 89.218807 140.88477 86.875 C 141.12608 85.703096 141.39842 84.769357 141.68164 84.142578 C 141.82325 83.829189 141.9669 83.593043 142.10156 83.445312 C 142.23622 83.297582 142.34898 83.244363 142.44336 83.244141 C 143.01141 83.242867 143.72948 82.891171 144.42773 82.394531 C 145.12599 81.897891 145.79152 81.250466 146.18359 80.607422 C 147.65229 78.198572 146.77747 74.919303 144.27344 73.392578 C 143.66652 73.022534 142.99152 72.801046 142.29883 72.714844 z M 142.25586 73.070312 C 142.90223 73.148007 143.52928 73.351578 144.08984 73.693359 C 146.43323 75.122135 147.24472 78.190118 145.88281 80.423828 C 145.52933 81.003574 144.88861 81.631804 144.22266 82.105469 C 143.55671 82.579134 142.85202 82.891662 142.44336 82.892578 C 142.21901 82.893106 142.0158 83.018096 141.8418 83.208984 C 141.6678 83.399873 141.51043 83.663757 141.35938 83.998047 C 141.05727 84.666626 140.78345 85.617861 140.53906 86.804688 C 140.05028 89.178341 139.68734 92.491624 139.54297 96.292969 L 139.33203 101.83203 L 138.19141 102.40234 C 137.48454 102.75546 135.92453 102.96935 134.31641 102.98047 C 132.70828 102.99159 131.03163 102.80819 130.05664 102.45117 C 129.31544 102.17978 128.32273 101.6029 127.91797 101.22266 C 127.54463 100.87193 127.27803 100.58487 127.13086 100.32812 C 126.98369 100.07138 126.94621 99.85524 127.00977 99.583984 C 127.13687 99.041472 127.75489 98.269754 128.97852 96.972656 C 131.36808 94.439608 135.78916 88.076544 137.70703 84.417969 L 138.85938 82.21875 L 137.82031 81.134766 C 137.22334 80.511664 136.84546 79.507954 136.74414 78.445312 C 136.64282 77.382671 136.81745 76.265888 137.2832 75.421875 C 138.21336 73.736313 140.31676 72.83723 142.25586 73.070312 z "
         id="path1197" />
    </g>
    <g
       id="g1199"
       style="opacity:1;stroke:#4d4d4d;stroke-opacity:1">
      <path
         style="color:#000000;font-style:normal;font-variant:normal;font-weight:normal;font-stretch:normal;font-size:medium;line-height:normal;font-family:sans-serif;font-variant-ligatures:normal;font-variant-position:normal;font-variant-caps:normal;font-variant-numeric:normal;font-variant-alternates:normal;font-variant-east-asian:normal;font-feature-settings:normal;font-variation-settings:normal;text-indent:0;text-align:start;text-decoration:none;text-decoration-line:none;text-decoration-style:solid;text-decoration-color:#000000;letter-spacing:normal;word-spacing:normal;text-transform:none;writing-mode:lr-tb;direction:ltr;text-orientation:mixed;dominant-baseline:auto;baseline-shift:baseline;text-anchor:start;white-space:normal;shape-padding:0;shape-margin:0;inline-size:0;clip-rule:nonzero;display:inline;overflow:visible;visibility:visible;isolation:auto;mix-blend-mode:normal;color-interpolation:sRGB;color-interpolation-filters:linearRGB;solid-color:#000000;solid-opacity:1;vector-effect:none;fill:#ffffff;fill-opacity:1;fill-rule:nonzero;stroke-width:0.26458333;stroke-linecap:butt;stroke-linejoin:miter;stroke-miterlimit:4;stroke-dasharray:none;stroke-dashoffset:0;stroke-opacity:1;color-rendering:auto;image-rendering:auto;shape-rendering:auto;text-rendering:auto;enable-background:accumulate;stop-color:#000000;stop-opacity:1;stroke:#4d4d4d"
         d="m 67.361476,102.58155 -1.23472,-0.63796 -0.08,-2.822224 c -0.1364,-4.813283 -0.79697,-10.462349 -1.55527,-13.300409 -0.66229,-2.47874 -0.83906,-2.7758 -2.01481,-3.3858 -3.36552,-1.74608 -3.54106,-6.92917 -0.30156,-8.90441 1.57577,-0.9608 4.04859,-0.91506 5.5393,0.10248 1.36603,0.93243 2.46926,2.83696 2.46926,4.26271 0,1.3593 -0.94662,3.27113 -2.04904,4.13829 l -0.90121,0.70889 0.79626,1.66276 c 1.33103,2.77947 6.57197,10.365773 8.81511,12.759941 2.07752,2.217388 2.10421,2.271618 1.59913,3.248352 -0.85324,1.64997 -3.03111,2.52261 -6.67275,2.67366 -2.55573,0.10601 -3.41582,0.007 -4.40972,-0.50628 z"
         id="path1201" />
      <path
         style="color:#000000;font-style:normal;font-variant:normal;font-weight:normal;font-stretch:normal;font-size:medium;line-height:normal;font-family:sans-serif;font-variant-ligatures:normal;font-variant-position:normal;font-variant-caps:normal;font-variant-numeric:normal;font-variant-alternates:normal;font-variant-east-asian:normal;font-feature-settings:normal;font-variation-settings:normal;text-indent:0;text-align:start;text-decoration:none;text-decoration-line:none;text-decoration-style:solid;text-decoration-color:#000000;letter-spacing:normal;word-spacing:normal;text-transform:none;writing-mode:lr-tb;direction:ltr;text-orientation:mixed;dominant-baseline:auto;baseline-shift:baseline;text-anchor:start;white-space:normal;shape-padding:0;shape-margin:0;inline-size:0;clip-rule:nonzero;display:inline;overflow:visible;visibility:visible;isolation:auto;mix-blend-mode:normal;color-interpolation:sRGB;color-interpolation-filters:linearRGB;solid-color:#000000;solid-opacity:1;vector-effect:none;fill-opacity:1;fill-rule:nonzero;stroke-width:0.26458333;stroke-linecap:butt;stroke-linejoin:miter;stroke-miterlimit:4;stroke-dasharray:none;stroke-dashoffset:0;stroke-opacity:1;color-rendering:auto;image-rendering:auto;shape-rendering:auto;text-rendering:auto;enable-background:accumulate;stop-color:#000000;stop-opacity:1;stroke:#4d4d4d"
         d="M 64.980469 72.65625 C 63.949279 72.637221 62.907947 72.878461 62.083984 73.380859 C 58.724964 75.428975 58.904578 80.781159 62.394531 82.591797 C 62.975224 82.893071 63.271044 83.090159 63.525391 83.517578 C 63.779737 83.944998 63.989724 84.629901 64.320312 85.867188 C 65.070139 88.673534 65.73504 94.325883 65.871094 99.126953 L 65.953125 102.05273 L 67.28125 102.73828 C 67.792523 103.00232 68.284736 103.16452 68.960938 103.24219 C 69.637139 103.31986 70.498341 103.31681 71.779297 103.26367 C 73.612715 103.18762 75.08462 102.93099 76.21875 102.47656 C 77.35288 102.02214 78.152644 101.3642 78.601562 100.49609 C 78.72843 100.25076 78.829979 100.05327 78.873047 99.841797 C 78.916114 99.63032 78.885578 99.409497 78.771484 99.177734 C 78.543296 98.714209 78.011649 98.153864 76.972656 97.044922 C 74.762901 94.686386 69.496581 87.059636 68.189453 84.330078 L 67.453125 82.794922 L 68.244141 82.173828 C 69.407014 81.259116 70.359375 79.337676 70.359375 77.896484 C 70.359375 76.379743 69.236332 74.458832 67.814453 73.488281 C 67.032605 72.954602 66.011658 72.675279 64.980469 72.65625 z M 64.972656 73.023438 C 65.944497 73.041464 66.906372 73.295436 67.615234 73.779297 C 68.925416 74.673606 70.007812 76.561726 70.007812 77.896484 C 70.007812 79.173893 69.067357 81.076877 68.025391 81.896484 L 67.013672 82.691406 L 67.871094 84.482422 C 69.226026 87.311804 74.440272 94.857309 76.716797 97.287109 C 77.755324 98.395555 78.276811 98.971865 78.455078 99.333984 C 78.544212 99.515044 78.556403 99.628793 78.527344 99.771484 C 78.498284 99.914176 78.412782 100.09096 78.287109 100.33398 C 77.882788 101.11585 77.166416 101.71629 76.087891 102.14844 C 75.009365 102.58059 73.571894 102.83711 71.763672 102.91211 C 70.488897 102.96499 69.641251 102.96623 69 102.89258 C 68.358749 102.81892 67.925987 102.67502 67.443359 102.42578 L 66.300781 101.83398 L 66.222656 99.117188 C 66.08591 94.291692 65.428883 88.645164 64.662109 85.775391 C 64.330408 84.533937 64.121673 83.831186 63.828125 83.337891 C 63.534577 82.844595 63.153651 82.588023 62.558594 82.279297 C 59.317507 80.597775 59.147598 75.584005 62.267578 73.681641 C 63.019385 73.223239 64.000816 73.005411 64.972656 73.023438 z "
         id="path1203" />
    </g>
    <g
       id="g1205"
       style="opacity:1;stroke:#4d4d4d;stroke-opacity:1">
      <path
         style="color:#000000;font-style:normal;font-variant:normal;font-weight:normal;font-stretch:normal;font-size:medium;line-height:normal;font-family:sans-serif;font-variant-ligatures:normal;font-variant-position:normal;font-variant-caps:normal;font-variant-numeric:normal;font-variant-alternates:normal;font-variant-east-asian:normal;font-feature-settings:normal;font-variation-settings:normal;text-indent:0;text-align:start;text-decoration:none;text-decoration-line:none;text-decoration-style:solid;text-decoration-color:#000000;letter-spacing:normal;word-spacing:normal;text-transform:none;writing-mode:lr-tb;direction:ltr;text-orientation:mixed;dominant-baseline:auto;baseline-shift:baseline;text-anchor:start;white-space:normal;shape-padding:0;shape-margin:0;inline-size:0;clip-rule:nonzero;display:inline;overflow:visible;visibility:visible;isolation:auto;mix-blend-mode:normal;color-interpolation:sRGB;color-interpolation-filters:linearRGB;solid-color:#000000;solid-opacity:1;vector-effect:none;fill:#ffffff;fill-opacity:1;fill-rule:nonzero;stroke-width:0.26458333;stroke-linecap:butt;stroke-linejoin:miter;stroke-miterlimit:4;stroke-dasharray:none;stroke-dashoffset:0;stroke-opacity:1;color-rendering:auto;image-rendering:auto;shape-rendering:auto;text-rendering:auto;enable-background:accumulate;stop-color:#000000;stop-opacity:1;stroke:#4d4d4d"
         d="m 69.478146,113.66106 c -3.84349,-1.17899 -7.2725,-3.12053 -11.00285,-6.22994 -3.64844,-3.04113 -5.79748,-5.51712 -10.0078,-11.530346 -2.76119,-3.943566 -10.0338,-16.523377 -10.0338,-17.355987 0,-0.91587 1.27998,-0.329 1.98908,0.91199 1.63244,2.85695 7.54854,10.329 11.0637,13.973462 6.84519,7.096951 12.54681,10.845261 18.37504,12.079901 4.93873,1.04622 8.17158,0.0265 10.91367,-3.44254 7.37839,-9.334318 12.67529,-31.700543 16.02858,-67.680903 0.49728,-5.33576 1.03252,-10.68804 1.18941,-11.89395 l 0.28527,-2.19257 -1.32535,-1.2559 c -1.32855,-1.25893 -2.78051,-4.36588 -2.78051,-5.94984 0,-1.53015 1.04215,-4.2890591 2.10598,-5.5752085 4.302704,-5.201877 12.724344,-3.4609179 14.661104,3.0308085 0.28547,0.95684 0.51903,2.10183 0.51903,2.5444 0,1.60804 -1.43821,4.64665 -2.8406,6.00152 -1.09433,1.05726 -1.36533,1.55033 -1.23005,2.23796 0.0954,0.48507 0.50421,4.5332 0.90839,8.99583 2.7861,30.76203 7.11914,53.2778 12.50009,64.95409 2.38329,5.171583 6.08929,9.448183 8.92342,10.297313 4.24535,1.27193 11.18683,-0.94706 17.22349,-5.50588 5.33759,-4.030856 14.99713,-14.937473 18.26095,-20.618493 0.70891,-1.23392 1.9932,-1.82833 1.9932,-0.9225 0,0.66299 -6.28159,11.77297 -8.91897,15.774566 -7.29096,11.062337 -14.46681,17.228977 -22.66631,19.478477 -3.87687,1.06361 -8.6846,0.85829 -11.32074,-0.48346 -5.46504,-2.78161 -9.60278,-12.38486 -13.51512,-31.367103 -2.54606,-12.35329 -5.10318,-35.39975 -6.22512,-56.10492 l -0.24373,-4.49792 h -1.49195 -1.49195 l -0.24373,4.49792 c -2.065004,38.10926 -7.126234,68.129339 -13.536904,80.292513 -2.05361,3.8964 -3.8558,5.9834 -6.20335,7.18371 -1.54058,0.78769 -2.35424,0.94187 -5.51157,1.04437 -3.09373,0.10042 -4.14019,-0.0135 -6.35,-0.69137 z"
         id="path1207" />
      <path
         style="color:#000000;font-style:normal;font-variant:normal;font-weight:normal;font-stretch:normal;font-size:medium;line-height:normal;font-family:sans-serif;font-variant-ligatures:normal;font-variant-position:normal;font-variant-caps:normal;font-variant-numeric:normal;font-variant-alternates:normal;font-variant-east-asian:normal;font-feature-settings:normal;font-variation-settings:normal;text-indent:0;text-align:start;text-decoration:none;text-decoration-line:none;text-decoration-style:solid;text-decoration-color:#000000;letter-spacing:normal;word-spacing:normal;text-transform:none;writing-mode:lr-tb;direction:ltr;text-orientation:mixed;dominant-baseline:auto;baseline-shift:baseline;text-anchor:start;white-space:normal;shape-padding:0;shape-margin:0;inline-size:0;clip-rule:nonzero;display:inline;overflow:visible;visibility:visible;isolation:auto;mix-blend-mode:normal;color-interpolation:sRGB;color-interpolation-filters:linearRGB;solid-color:#000000;solid-opacity:1;vector-effect:none;fill-opacity:1;fill-rule:nonzero;stroke-width:0.352777;stroke-linecap:butt;stroke-linejoin:miter;stroke-miterlimit:4;stroke-dasharray:none;stroke-dashoffset:0;stroke-opacity:1;color-rendering:auto;image-rendering:auto;shape-rendering:auto;text-rendering:auto;enable-background:accumulate;stop-color:#000000;stop-opacity:1;stroke:#4d4d4d"
         d="M 102.28516 4.3105469 C 100.02587 4.4257881 97.78773 5.4172969 96.142578 7.40625 C 95.035847 8.7442656 93.996094 11.483511 93.996094 13.09375 C 93.996094 13.939626 94.368559 15.119234 94.904297 16.265625 C 95.440035 17.412016 96.138457 18.514646 96.832031 19.171875 L 98.091797 20.367188 L 97.818359 22.470703 C 97.659476 23.691932 97.12626 29.034541 96.628906 34.371094 C 93.276582 70.34109 87.955573 92.699985 80.636719 101.95898 C 79.281372 103.67364 77.820608 104.76852 76.089844 105.31445 C 74.35908 105.86039 72.348803 105.85698 69.898438 105.33789 C 64.118199 104.11342 58.446039 100.39266 51.613281 93.308594 C 48.113101 89.679662 42.183263 82.181728 40.576172 79.369141 C 40.204883 78.719351 39.694451 78.241299 39.236328 78.03125 C 39.007267 77.926226 38.781207 77.878631 38.578125 77.962891 C 38.375043 78.04715 38.257812 78.274869 38.257812 78.544922 C 38.257812 78.661156 38.295054 78.75299 38.351562 78.898438 C 38.408071 79.043885 38.488595 79.225407 38.591797 79.443359 C 38.7982 79.879264 39.093786 80.456246 39.457031 81.136719 C 40.183521 82.497663 41.179359 84.272317 42.261719 86.144531 C 44.426439 89.88896 46.93286 94.017586 48.322266 96.001953 C 52.535712 102.01964 54.704839 104.51694 58.363281 107.56641 C 62.106728 110.68673 65.558506 112.64379 69.425781 113.83008 C 71.64522 114.5109 72.734642 114.6299 75.833984 114.5293 C 78.996065 114.42664 79.865235 114.25975 81.419922 113.46484 C 83.808681 112.24346 85.637875 110.1181 87.699219 106.20703 C 90.923535 100.08943 93.788965 89.534315 96.115234 75.736328 C 98.441504 61.938341 100.22307 44.901703 101.25586 25.841797 L 101.49023 21.509766 L 102.81641 21.509766 L 104.14062 21.509766 L 104.375 25.841797 C 105.49734 46.554365 108.05341 69.599755 110.60352 81.972656 C 112.56098 91.470059 114.57428 98.62536 116.78906 103.76562 C 119.00384 108.90589 121.42132 112.04107 124.21094 113.46094 C 126.91786 114.83871 131.73987 115.03202 135.6582 113.95703 C 143.9117 111.69272 151.12213 105.48784 158.42578 94.40625 C 159.75034 92.39655 161.97957 88.618591 163.88086 85.255859 C 164.83151 83.574494 165.6986 81.99875 166.33008 80.798828 C 166.64582 80.198867 166.90316 79.693669 167.08203 79.314453 C 167.17147 79.124845 167.24193 78.966767 167.29102 78.841797 C 167.3401 78.716827 167.37305 78.646227 167.37305 78.535156 C 167.37305 78.267018 167.25448 78.040132 167.05078 77.958984 C 166.84708 77.877837 166.62171 77.927154 166.39258 78.033203 C 165.93431 78.245302 165.42206 78.722894 165.05078 79.369141 C 161.81327 85.004368 152.13504 95.933276 146.83789 99.933594 C 140.83116 104.46981 133.91217 106.65268 129.77148 105.41211 C 128.41216 105.00484 126.78867 103.74462 125.22266 101.9375 C 123.65664 100.13038 122.14187 97.781951 120.95703 95.210938 C 115.59709 83.580239 111.25797 61.067822 108.47266 30.314453 C 108.27052 28.082589 108.06708 25.953585 107.90234 24.322266 C 107.81998 23.506606 107.74763 22.81541 107.68945 22.296875 C 107.63127 21.77834 107.58876 21.444225 107.56055 21.300781 C 107.49875 20.98669 107.52598 20.751086 107.69727 20.439453 C 107.86855 20.12782 108.19769 19.746821 108.74023 19.222656 C 109.46715 18.520373 110.18284 17.410263 110.72461 16.265625 C 111.26638 15.120987 111.63477 13.950357 111.63477 13.09375 C 111.63477 12.841436 111.57369 12.447056 111.47852 11.980469 C 111.38334 11.513881 111.25385 10.984262 111.10938 10.5 C 109.87541 6.3639479 106.05063 4.1184782 102.28516 4.3105469 z M 102.31055 4.6523438 C 105.921 4.4656505 109.5845 6.6210034 110.77148 10.599609 C 110.91248 11.072187 111.03984 11.595021 111.13281 12.050781 C 111.22578 12.506541 111.2832 12.903494 111.2832 13.09375 C 111.2832 13.845183 110.93223 14.99984 110.4043 16.115234 C 109.87637 17.230629 109.17157 18.316163 108.49609 18.96875 C 107.94431 19.501845 107.5907 19.898406 107.38672 20.269531 C 107.18274 20.640656 107.14136 20.993648 107.21484 21.367188 C 107.23433 21.466279 107.27996 21.819565 107.33789 22.335938 C 107.39583 22.85231 107.4685 23.542587 107.55078 24.357422 C 107.71535 25.987092 107.91905 28.114937 108.12109 30.345703 C 110.90798 61.116395 115.23476 83.63554 120.63672 95.357422 C 121.83517 97.957991 123.36374 100.33162 124.95508 102.16797 C 126.54642 104.00432 128.19512 105.30814 129.66992 105.75 C 134.01994 107.05329 140.98224 104.79822 147.04883 100.2168 C 152.42686 96.155402 162.06729 85.271735 165.35742 79.544922 C 165.69505 78.957248 166.17991 78.520645 166.54102 78.353516 C 166.72157 78.269951 166.86067 78.263504 166.91992 78.287109 C 166.97918 78.310715 167.02148 78.350379 167.02148 78.535156 C 167.02148 78.506959 167.00711 78.600325 166.96289 78.712891 C 166.91868 78.825457 166.85115 78.976663 166.76367 79.162109 C 166.58872 79.533003 166.3339 80.037408 166.01953 80.634766 C 165.39079 81.829481 164.52364 83.402829 163.57422 85.082031 C 161.67537 88.440436 159.44368 92.219041 158.13086 94.210938 C 150.85259 105.25402 143.71191 111.3825 135.56641 113.61719 C 131.731 114.66942 126.93645 114.45221 124.37109 113.14648 C 121.69567 111.78474 119.31171 108.72732 117.11328 103.625 C 114.91485 98.522676 112.90409 91.385231 110.94922 81.900391 C 108.4072 69.566712 105.8481 46.520038 104.72656 25.822266 L 104.47461 21.158203 L 102.81641 21.158203 L 101.15625 21.158203 L 100.9043 25.822266 C 99.872081 44.87162 98.090842 61.897573 95.767578 75.677734 C 93.444314 89.457896 90.573073 99.997395 87.386719 106.04297 C 85.340842 109.9247 83.566106 111.97115 81.259766 113.15039 C 79.733293 113.93087 78.974845 114.07344 75.822266 114.17578 C 72.734148 114.27602 71.729478 114.1671 69.529297 113.49219 C 65.709592 112.32049 62.305143 110.39341 58.587891 107.29492 C 54.949452 104.26213 52.818522 101.80759 48.611328 95.798828 C 47.239544 93.839629 44.730242 89.708271 42.568359 85.96875 C 41.487418 84.09899 40.492943 82.325881 39.769531 80.970703 C 39.407825 80.293114 39.11226 79.719794 38.910156 79.292969 C 38.809104 79.079556 38.73106 78.901757 38.679688 78.769531 C 38.628315 78.637305 38.609375 78.532764 38.609375 78.544922 C 38.609375 78.35704 38.653817 78.313572 38.712891 78.289062 C 38.771964 78.264553 38.90832 78.269229 39.087891 78.351562 C 39.447033 78.516229 39.93172 78.953722 40.269531 79.544922 C 41.92732 82.446234 47.829236 89.892742 51.359375 93.552734 C 58.216997 100.66257 63.947997 104.43879 69.824219 105.68359 C 72.312584 106.21073 74.389446 106.22002 76.195312 105.65039 C 78.001179 105.08076 79.527319 103.93211 80.914062 102.17773 C 88.351989 92.768098 93.62426 70.393067 96.978516 34.402344 C 97.475722 29.067376 98.013072 23.706217 98.167969 22.515625 L 98.464844 20.234375 L 97.074219 18.916016 C 96.439243 18.314315 95.746989 17.234994 95.224609 16.117188 C 94.70223 14.999381 94.349609 13.831834 94.349609 13.09375 C 94.349609 11.643689 95.393133 8.8651426 96.414062 7.6308594 C 97.995939 5.7184047 100.14428 4.7643597 102.31055 4.6523438 z "
         id="path1209" />
    </g>
    <g
       id="g1211"
       style="opacity:1;stroke:#4d4d4d;stroke-opacity:1">
      <path
         style="color:#000000;font-style:normal;font-variant:normal;font-weight:normal;font-stretch:normal;font-size:medium;line-height:normal;font-family:sans-serif;font-variant-ligatures:normal;font-variant-position:normal;font-variant-caps:normal;font-variant-numeric:normal;font-variant-alternates:normal;font-variant-east-asian:normal;font-feature-settings:normal;font-variation-settings:normal;text-indent:0;text-align:start;text-decoration:none;text-decoration-line:none;text-decoration-style:solid;text-decoration-color:#000000;letter-spacing:normal;word-spacing:normal;text-transform:none;writing-mode:lr-tb;direction:ltr;text-orientation:mixed;dominant-baseline:auto;baseline-shift:baseline;text-anchor:start;white-space:normal;shape-padding:0;shape-margin:0;inline-size:0;clip-rule:nonzero;display:inline;overflow:visible;visibility:visible;isolation:auto;mix-blend-mode:normal;color-interpolation:sRGB;color-interpolation-filters:linearRGB;solid-color:#000000;solid-opacity:1;vector-effect:none;fill:#ffffff;fill-opacity:1;fill-rule:nonzero;stroke-width:0.352777;stroke-linecap:butt;stroke-linejoin:miter;stroke-miterlimit:4;stroke-dasharray:none;stroke-dashoffset:0;stroke-opacity:1;color-rendering:auto;image-rendering:auto;shape-rendering:auto;text-rendering:auto;enable-background:accumulate;stop-color:#000000;stop-opacity:1;stroke:#4d4d4d"
         d="m 148.14759,130.57834 c 0,-0.82711 2.71279,-9.45494 4.23381,-13.46531 4.73728,-12.49048 11.3105,-25.579392 20.19215,-40.207653 2.1175,-3.48757 3.68677,-6.39546 3.48726,-6.46196 -1.08882,-0.36294 -2.77962,-1.85517 -3.49258,-3.08243 -0.64926,-1.11759 -0.7889,-1.80367 -0.69091,-3.39466 0.38306,-6.21997 8.51712,-8.08591 11.56995,-2.65412 0.91851,1.63426 1.01168,4.22518 0.20786,5.77961 -0.49467,0.95657 -2.17604,2.6481 -2.962,2.97989 -0.15887,0.0671 -1.57396,2.34444 -3.14464,5.06082 -9.78247,16.918081 -16.51953,34.647463 -20.07445,52.828423 l -0.60356,3.0868 h -4.36145 c -3.39491,0 -4.36144,-0.10402 -4.36144,-0.46941 z"
         id="path1213" />
      <path
         style="color:#000000;font-style:normal;font-variant:normal;font-weight:normal;font-stretch:normal;font-size:medium;line-height:normal;font-family:sans-serif;font-variant-ligatures:normal;font-variant-position:normal;font-variant-caps:normal;font-variant-numeric:normal;font-variant-alternates:normal;font-variant-east-asian:normal;font-feature-settings:normal;font-variation-settings:normal;text-indent:0;text-align:start;text-decoration:none;text-decoration-line:none;text-decoration-style:solid;text-decoration-color:#000000;letter-spacing:normal;word-spacing:normal;text-transform:none;writing-mode:lr-tb;direction:ltr;text-orientation:mixed;dominant-baseline:auto;baseline-shift:baseline;text-anchor:start;white-space:normal;shape-padding:0;shape-margin:0;inline-size:0;clip-rule:nonzero;display:inline;overflow:visible;visibility:visible;isolation:auto;mix-blend-mode:normal;color-interpolation:sRGB;color-interpolation-filters:linearRGB;solid-color:#000000;solid-opacity:1;vector-effect:none;fill-opacity:1;fill-rule:nonzero;stroke-width:0.26458333;stroke-linecap:butt;stroke-linejoin:miter;stroke-miterlimit:4;stroke-dasharray:none;stroke-dashoffset:0;stroke-opacity:1;color-rendering:auto;image-rendering:auto;shape-rendering:auto;text-rendering:auto;enable-background:accumulate;stop-color:#000000;stop-opacity:1;stroke:#4d4d4d"
         d="M 178.56055 57.951172 C 177.90975 57.902473 177.25379 57.952518 176.62109 58.097656 C 174.09032 58.678211 171.89734 60.769719 171.70117 63.955078 C 171.60236 65.559436 171.75652 66.314015 172.41602 67.449219 C 172.78732 68.088367 173.39728 68.777449 174.05664 69.359375 C 174.67652 69.906457 175.32426 70.322281 175.88867 70.537109 C 175.88726 70.542402 175.88848 70.541024 175.88672 70.546875 C 175.8632 70.62487 175.81078 70.753328 175.73633 70.917969 C 175.58743 71.24725 175.3462 71.724992 175.03125 72.308594 C 174.40136 73.475798 173.47937 75.072735 172.42188 76.814453 C 163.53604 91.449611 156.95877 104.54792 152.2168 117.05078 C 151.45374 119.06267 150.39447 122.22228 149.52539 124.98633 C 149.09085 126.36835 148.70465 127.65199 148.42578 128.64258 C 148.28635 129.13787 148.17377 129.55998 148.0957 129.88672 C 148.01764 130.21346 147.9707 130.42653 147.9707 130.57812 C 147.9707 130.66268 148.00478 130.75429 148.0625 130.82031 C 148.12022 130.88634 148.19565 130.93149 148.2832 130.96875 C 148.4583 131.04327 148.69619 131.08831 149.03711 131.125 C 149.71896 131.19838 150.81051 131.22461 152.50977 131.22461 L 157.01562 131.22461 L 157.64648 127.99414 C 161.19749 109.83318 167.92787 92.122935 177.70117 75.220703 C 178.48571 73.863893 179.23225 72.61614 179.80078 71.701172 C 180.08505 71.243688 180.32469 70.869423 180.50195 70.607422 C 180.59058 70.476421 180.66375 70.373591 180.7168 70.304688 C 180.74332 70.270236 180.76392 70.244967 180.77734 70.230469 C 180.79077 70.21597 180.81253 70.212913 180.76172 70.234375 C 181.21213 70.044237 181.81964 69.531574 182.4082 68.939453 C 182.99677 68.347333 183.5472 67.684908 183.8125 67.171875 C 184.65561 65.54147 184.55659 62.925796 183.60156 61.226562 C 182.42899 59.140254 180.51295 58.097268 178.56055 57.951172 z M 178.53125 58.298828 C 180.37326 58.43207 182.17591 59.410904 183.29297 61.398438 C 184.17496 62.967724 184.26258 65.533264 183.49805 67.011719 C 183.26868 67.455256 182.73048 68.115672 182.1582 68.691406 C 181.58593 69.267141 180.96055 69.768504 180.625 69.910156 C 180.55433 69.940006 180.54505 69.962675 180.51953 69.990234 C 180.49401 70.017794 180.46794 70.050297 180.4375 70.089844 C 180.37661 70.168937 180.2999 70.275777 180.20898 70.410156 C 180.02715 70.678915 179.7857 71.055839 179.5 71.515625 C 178.9286 72.435197 178.18262 73.685352 177.39648 75.044922 C 167.60485 91.978852 160.85961 109.72678 157.30078 127.92773 L 156.72461 130.87109 L 152.50977 130.87109 C 150.81411 130.87109 149.72436 130.84536 149.07422 130.77539 C 148.74915 130.7404 148.53214 130.69033 148.41992 130.64258 C 148.36381 130.6187 148.33652 130.59749 148.32812 130.58789 C 148.31973 130.57829 148.32422 130.58492 148.32422 130.57812 C 148.32422 130.52295 148.36322 130.28587 148.43945 129.9668 C 148.51569 129.64772 148.62697 129.22887 148.76562 128.73633 C 149.04294 127.75125 149.4295 126.47142 149.86328 125.0918 C 150.73085 122.33256 151.78891 119.17426 152.54688 117.17578 C 157.27946 104.69768 163.84715 91.617457 172.72461 76.996094 C 173.78461 75.250242 174.70756 73.649868 175.3418 72.474609 C 175.65892 71.88698 175.9032 71.406138 176.05859 71.0625 C 176.13629 70.890681 176.19223 70.755819 176.22461 70.648438 C 176.2408 70.594747 176.25171 70.549998 176.25391 70.496094 C 176.255 70.469141 176.25593 70.438583 176.24023 70.396484 C 176.22454 70.354385 176.17738 70.295454 176.11719 70.275391 C 175.61559 70.108192 174.9275 69.655489 174.29102 69.09375 C 173.65453 68.532011 173.06236 67.859596 172.7207 67.271484 C 172.08168 66.171508 171.95557 65.554184 172.05273 63.976562 C 172.23962 60.941952 174.30594 58.990867 176.70117 58.441406 C 177.29998 58.304041 177.91725 58.254414 178.53125 58.298828 z "
         id="path1215" />
    </g>
    <g
       id="g1217"
       style="opacity:1;stroke:#4d4d4d;stroke-opacity:1">
      <path
         style="color:#000000;font-style:normal;font-variant:normal;font-weight:normal;font-stretch:normal;font-size:medium;line-height:normal;font-family:sans-serif;font-variant-ligatures:normal;font-variant-position:normal;font-variant-caps:normal;font-variant-numeric:normal;font-variant-alternates:normal;font-variant-east-asian:normal;font-feature-settings:normal;font-variation-settings:normal;text-indent:0;text-align:start;text-decoration:none;text-decoration-line:none;text-decoration-style:solid;text-decoration-color:#000000;letter-spacing:normal;word-spacing:normal;text-transform:none;writing-mode:lr-tb;direction:ltr;text-orientation:mixed;dominant-baseline:auto;baseline-shift:baseline;text-anchor:start;white-space:normal;shape-padding:0;shape-margin:0;inline-size:0;clip-rule:nonzero;display:inline;overflow:visible;visibility:visible;isolation:auto;mix-blend-mode:normal;color-interpolation:sRGB;color-interpolation-filters:linearRGB;solid-color:#000000;solid-opacity:1;vector-effect:none;fill:#ffffff;fill-opacity:1;fill-rule:nonzero;stroke-width:0.26458333;stroke-linecap:butt;stroke-linejoin:miter;stroke-miterlimit:4;stroke-dasharray:none;stroke-dashoffset:0;stroke-opacity:1;color-rendering:auto;image-rendering:auto;shape-rendering:auto;text-rendering:auto;enable-background:accumulate;stop-color:#000000;stop-opacity:1;stroke:#4d4d4d"
         d="m 48.162626,127.96095 c -2.83705,-14.63983 -7.7108,-28.822264 -14.75987,-42.950643 -2.65131,-5.31399 -7.99176,-14.739 -8.4646,-14.9386 -0.15887,-0.0671 -0.76494,-0.52254 -1.34683,-1.01216 -4.12027,-3.46699 -2.03496,-10.33955 3.32045,-10.94318 2.03784,-0.22969 4.40723,0.82457 5.71934,2.54484 1.39943,1.83476 1.58512,4.71478 0.43195,6.69978 -0.71297,1.22726 -2.40376,2.71949 -3.49259,3.08243 -0.19951,0.0665 1.36977,2.97439 3.48726,6.46196 8.88165,14.628261 15.45488,27.717173 20.19216,40.207653 1.52101,4.01037 4.23381,12.6382 4.23381,13.46531 0,0.36539 -0.96654,0.46941 -4.36145,0.46941 h -4.36145 z"
         id="path1219" />
      <path
         style="color:#000000;font-style:normal;font-variant:normal;font-weight:normal;font-stretch:normal;font-size:medium;line-height:normal;font-family:sans-serif;font-variant-ligatures:normal;font-variant-position:normal;font-variant-caps:normal;font-variant-numeric:normal;font-variant-alternates:normal;font-variant-east-asian:normal;font-feature-settings:normal;font-variation-settings:normal;text-indent:0;text-align:start;text-decoration:none;text-decoration-line:none;text-decoration-style:solid;text-decoration-color:#000000;letter-spacing:normal;word-spacing:normal;text-transform:none;writing-mode:lr-tb;direction:ltr;text-orientation:mixed;dominant-baseline:auto;baseline-shift:baseline;text-anchor:start;white-space:normal;shape-padding:0;shape-margin:0;inline-size:0;clip-rule:nonzero;display:inline;overflow:visible;visibility:visible;isolation:auto;mix-blend-mode:normal;color-interpolation:sRGB;color-interpolation-filters:linearRGB;solid-color:#000000;solid-opacity:1;vector-effect:none;fill-opacity:1;fill-rule:nonzero;stroke-width:0.352777;stroke-linecap:butt;stroke-linejoin:miter;stroke-miterlimit:4;stroke-dasharray:none;stroke-dashoffset:0;stroke-opacity:1;color-rendering:auto;image-rendering:auto;shape-rendering:auto;text-rendering:auto;enable-background:accumulate;stop-color:#000000;stop-opacity:1;stroke:#4d4d4d"
         d="M 26.892578 57.941406 C 21.394158 58.561156 19.247944 65.63551 23.478516 69.195312 C 23.771929 69.442199 24.071028 69.679366 24.318359 69.865234 C 24.442025 69.958169 24.552655 70.03737 24.644531 70.099609 C 24.736408 70.161848 24.800569 70.205413 24.869141 70.234375 C 24.840341 70.222218 24.856203 70.225486 24.873047 70.242188 C 24.889891 70.258889 24.915012 70.286748 24.945312 70.324219 C 25.005913 70.39916 25.086899 70.510989 25.183594 70.652344 C 25.376983 70.935053 25.634085 71.338073 25.9375 71.833984 C 26.54433 72.825808 27.337051 74.189355 28.199219 75.710938 C 29.923554 78.754102 31.921009 82.437907 33.244141 85.089844 C 40.286658 99.20509 45.156315 113.37046 47.990234 127.99414 L 48.615234 131.22461 L 53.123047 131.22461 C 54.822303 131.22461 55.913852 131.19838 56.595703 131.125 C 56.936629 131.08831 57.174509 131.04327 57.349609 130.96875 C 57.437159 130.93149 57.510637 130.88634 57.568359 130.82031 C 57.626082 130.75429 57.660156 130.66268 57.660156 130.57812 C 57.660156 130.42653 57.613221 130.21346 57.535156 129.88672 C 57.457092 129.55998 57.344511 129.13787 57.205078 128.64258 C 56.926213 127.65199 56.54001 126.36835 56.105469 124.98633 C 55.236387 122.22228 54.17711 119.06267 53.414062 117.05078 C 48.672086 104.54792 42.094822 91.449611 33.208984 76.814453 C 32.151494 75.072735 31.229504 73.475798 30.599609 72.308594 C 30.284662 71.724992 30.043435 71.24725 29.894531 70.917969 C 29.82008 70.753328 29.767662 70.62487 29.744141 70.546875 C 29.742363 70.540981 29.74361 70.542436 29.742188 70.537109 C 30.306873 70.322465 30.9539 69.906846 31.574219 69.359375 C 32.233577 68.777449 32.843534 68.088366 33.214844 67.449219 C 34.409371 65.393029 34.220331 62.454236 32.771484 60.554688 C 31.418351 58.780633 29.005234 57.703284 26.892578 57.941406 z M 26.931641 58.291016 C 28.894665 58.069758 31.219148 59.101093 32.490234 60.767578 C 33.840248 62.537549 34.021969 65.357674 32.910156 67.271484 C 32.568496 67.859597 31.978283 68.532011 31.341797 69.09375 C 30.70531 69.655489 30.017225 70.108192 29.515625 70.275391 C 29.455433 70.295454 29.408269 70.354385 29.392578 70.396484 C 29.376887 70.438583 29.375855 70.469141 29.376953 70.496094 C 29.379149 70.549998 29.392012 70.594747 29.408203 70.648438 C 29.440586 70.755819 29.494568 70.890681 29.572266 71.0625 C 29.727662 71.406138 29.971942 71.88698 30.289062 72.474609 C 30.923303 73.649867 31.84625 75.250242 32.90625 76.996094 C 41.783712 91.617458 48.353354 104.69768 53.085938 117.17578 C 53.8439 119.17426 54.901961 122.33256 55.769531 125.0918 C 56.203317 126.47142 56.589871 127.75125 56.867188 128.73633 C 57.005846 129.22887 57.117126 129.64772 57.193359 129.9668 C 57.269593 130.28587 57.306641 130.52295 57.306641 130.57812 C 57.306641 130.58492 57.311131 130.57829 57.302734 130.58789 C 57.294338 130.59749 57.267046 130.6187 57.210938 130.64258 C 57.098721 130.69033 56.881714 130.7404 56.556641 130.77539 C 55.906494 130.84536 54.8187 130.87109 53.123047 130.87109 L 48.90625 130.87109 L 48.335938 127.92773 C 45.495757 113.27175 40.616169 99.073152 33.560547 84.931641 C 32.232368 82.269588 30.23474 78.584848 28.507812 75.537109 C 27.644349 74.01324 26.848625 72.647956 26.238281 71.650391 C 25.933109 71.151608 25.674137 70.744808 25.474609 70.453125 C 25.374845 70.307283 25.289621 70.191159 25.21875 70.103516 C 25.183314 70.059694 25.152355 70.023184 25.121094 69.992188 C 25.089833 69.961191 25.064212 69.934789 25.005859 69.910156 C 24.994996 69.905568 24.926425 69.865922 24.841797 69.808594 C 24.757169 69.751265 24.649744 69.6745 24.529297 69.583984 C 24.288403 69.402953 23.993555 69.166561 23.705078 68.923828 C 19.695109 65.549651 21.719241 58.878526 26.931641 58.291016 z "
         id="path1221" />
    </g>
    <g
       id="g1223"
       style="opacity:1;stroke:#4d4d4d;stroke-opacity:1">
      <path
         style="color:#000000;font-style:normal;font-variant:normal;font-weight:normal;font-stretch:normal;font-size:medium;line-height:normal;font-family:sans-serif;font-variant-ligatures:normal;font-variant-position:normal;font-variant-caps:normal;font-variant-numeric:normal;font-variant-alternates:normal;font-variant-east-asian:normal;font-feature-settings:normal;font-variation-settings:normal;text-indent:0;text-align:start;text-decoration:none;text-decoration-line:none;text-decoration-style:solid;text-decoration-color:#000000;letter-spacing:normal;word-spacing:normal;text-transform:none;writing-mode:lr-tb;direction:ltr;text-orientation:mixed;dominant-baseline:auto;baseline-shift:baseline;text-anchor:start;white-space:normal;shape-padding:0;shape-margin:0;inline-size:0;clip-rule:nonzero;display:inline;overflow:visible;visibility:visible;isolation:auto;mix-blend-mode:normal;color-interpolation:sRGB;color-interpolation-filters:linearRGB;solid-color:#000000;solid-opacity:1;vector-effect:none;fill:#ffffff;fill-opacity:1;fill-rule:nonzero;stroke-width:0.352777;stroke-linecap:butt;stroke-linejoin:miter;stroke-miterlimit:4;stroke-dasharray:none;stroke-dashoffset:0;stroke-opacity:1;color-rendering:auto;image-rendering:auto;shape-rendering:auto;text-rendering:auto;enable-background:accumulate;stop-color:#000000;stop-opacity:1;stroke:#4d4d4d"
         d="m 49.369816,137.22136 v -2.99861 h 53.445834 53.44583 v 2.99861 2.99862 H 102.81565 49.369816 Z"
         id="path1225" />
      <path
         style="color:#000000;font-style:normal;font-variant:normal;font-weight:normal;font-stretch:normal;font-size:medium;line-height:normal;font-family:sans-serif;font-variant-ligatures:normal;font-variant-position:normal;font-variant-caps:normal;font-variant-numeric:normal;font-variant-alternates:normal;font-variant-east-asian:normal;font-feature-settings:normal;font-variation-settings:normal;text-indent:0;text-align:start;text-decoration:none;text-decoration-line:none;text-decoration-style:solid;text-decoration-color:#000000;letter-spacing:normal;word-spacing:normal;text-transform:none;writing-mode:lr-tb;direction:ltr;text-orientation:mixed;dominant-baseline:auto;baseline-shift:baseline;text-anchor:start;white-space:normal;shape-padding:0;shape-margin:0;inline-size:0;clip-rule:nonzero;display:inline;overflow:visible;visibility:visible;isolation:auto;mix-blend-mode:normal;color-interpolation:sRGB;color-interpolation-filters:linearRGB;solid-color:#000000;solid-opacity:1;vector-effect:none;fill-opacity:1;fill-rule:nonzero;stroke-width:0.26458333;stroke-linecap:butt;stroke-linejoin:miter;stroke-miterlimit:4;stroke-dasharray:none;stroke-dashoffset:0;stroke-opacity:1;color-rendering:auto;image-rendering:auto;shape-rendering:auto;text-rendering:auto;enable-background:accumulate;stop-color:#000000;stop-opacity:1;stroke:#4d4d4d"
         d="M 49.193359 134.04688 L 49.193359 137.2207 L 49.193359 140.39648 L 102.81641 140.39648 L 156.4375 140.39648 L 156.4375 137.2207 L 156.4375 134.04688 L 102.81641 134.04688 L 49.193359 134.04688 z M 49.546875 134.39844 L 102.81641 134.39844 L 156.08594 134.39844 L 156.08594 137.2207 L 156.08594 140.04297 L 102.81641 140.04297 L 49.546875 140.04297 L 49.546875 137.2207 L 49.546875 134.39844 z "
         id="path1227" />
    </g>
  </g>
</svg>
